<?xml version="1.0" encoding="utf-8"?>
<!-- Generator: Adobe Illustrator 16.0.0, SVG Export Plug-In . SVG Version: 6.00 Build 0)  -->
<svg version="1.2" baseProfile="tiny" id="Layer_1" xmlns="http://www.w3.org/2000/svg" xmlns:xlink="http://www.w3.org/1999/xlink"
	 x="0px" y="0px" width="841.89px" height="595.28px" viewBox="0 0 841.89 595.28" xml:space="preserve">
<circle fill="#FFFFFF" stroke="#000000" stroke-width="2" stroke-miterlimit="10" cx="203.22" cy="165.998" r="70.866"/>
<circle fill="#FFFFFF" stroke="#000000" stroke-width="2" stroke-miterlimit="10" cx="631.503" cy="165.998" r="70.866"/>
<circle fill="#FFFFFF" stroke="#000000" stroke-width="2" stroke-miterlimit="10" cx="203.22" cy="429.634" r="70.866"/>
<circle fill="#FFFFFF" stroke="#000000" stroke-width="2" stroke-miterlimit="10" cx="631.503" cy="429.634" r="70.866"/>
<text transform="matrix(1 0 0 1 179.9219 117.9976)" font-family="'MyriadPro-Regular'" font-size="12">I</text>
<text transform="matrix(1 0 0 1 182.79 117.9976)" font-family="'MyriadPro-Regular'" font-size="12">N</text>
<text transform="matrix(1 0 0 1 190.6855 117.9976)" font-family="'MyriadPro-Regular'" font-size="12"> </text>
<text transform="matrix(1 0 0 1 193.2295 117.9976)" font-family="'MyriadPro-Regular'" font-size="12">S</text>
<text transform="matrix(1 0 0 1 199.1455 117.9976)" font-family="'MyriadPro-Regular'" font-size="12">T</text>
<text transform="matrix(1 0 0 1 204.7856 117.9976)" font-family="'MyriadPro-Regular'" font-size="12">O</text>
<text transform="matrix(1 0 0 1 213.0537 117.9976)" font-family="'MyriadPro-Regular'" font-size="12">C</text>
<text transform="matrix(1 0 0 1 220.0132 117.9976)" font-family="'MyriadPro-Regular'" font-size="12">K</text>
<text transform="matrix(1 0 0 1 607.916 117.9976)" font-family="'MyriadPro-Regular'" font-size="12">WISHLIST</text>
<text transform="matrix(1 0 0 1 187.2422 380.9893)" font-family="'MyriadPro-Regular'" font-size="12">USERS</text>
<text transform="matrix(1 0 0 1 597.7461 380.9893)" font-family="'MyriadPro-Regular'" font-size="12">N</text>
<text transform="matrix(1 0 0 1 605.6426 380.9893)" font-family="'MyriadPro-Regular'" font-size="12">E</text>
<text transform="matrix(1 0 0 1 611.6543 380.9893)" font-family="'MyriadPro-Regular'" font-size="12">W</text>
<text transform="matrix(1 0 0 1 621.8066 380.9893)" font-family="'MyriadPro-Regular'" font-size="12"> </text>
<text transform="matrix(1 0 0 1 624.3496 380.9893)" font-family="'MyriadPro-Regular'" font-size="12">E</text>
<text transform="matrix(1 0 0 1 630.2539 380.9893)" font-family="'MyriadPro-Regular'" font-size="12">N</text>
<text transform="matrix(1 0 0 1 638.1504 380.9893)" font-family="'MyriadPro-Regular'" font-size="12">T</text>
<text transform="matrix(1 0 0 1 644.1133 380.9893)" font-family="'MyriadPro-Regular'" font-size="12">R</text>
<text transform="matrix(1 0 0 1 650.5693 380.9893)" font-family="'MyriadPro-Regular'" font-size="12">I</text>
<text transform="matrix(1 0 0 1 653.4375 380.9893)" font-family="'MyriadPro-Regular'" font-size="12">E</text>
<text transform="matrix(1 0 0 1 659.3418 380.9893)" font-family="'MyriadPro-Regular'" font-size="12">S</text>
<g>
	<polygon points="631.502,350.687 615.633,334.819 615.633,330.33 629.916,344.612 629.916,326.948 629.916,241.596 
		633.088,241.596 633.088,326.948 633.088,344.612 647.371,330.33 647.371,334.819 	"/>
</g>
<g>
	<polygon points="560.637,202.202 555.327,224.006 551.492,226.338 556.271,206.714 267.521,382.345 265.873,379.634 
		554.623,204.003 534.998,199.222 538.833,196.889 	"/>
</g>
<g>
	<polygon points="266.697,207.252 288.372,201.44 292.26,203.684 272.75,208.915 568.5,379.615 566.914,382.363 271.165,211.663 
		276.394,231.173 272.506,228.929 	"/>
</g>
<g>
	<polygon points="550.535,429.635 534.668,445.504 530.18,445.504 544.461,431.221 280.838,431.221 280.838,428.047 
		544.461,428.047 530.18,413.764 534.668,413.764 	"/>
</g>
<g>
	<polygon points="203.219,350.687 187.35,334.819 187.35,330.33 201.633,344.612 201.633,326.948 201.633,241.596 204.806,241.596 
		204.806,326.948 204.806,344.612 219.089,330.33 219.089,334.819 	"/>
</g>
<text transform="matrix(1 0 0 1 389.9297 447.6563)" font-family="'MyriadPro-Regular'" font-size="12">C</text>
<text transform="matrix(1 0 0 1 396.8057 447.6563)" font-family="'MyriadPro-Regular'" font-size="12">a</text>
<text transform="matrix(1 0 0 1 402.5898 447.6563)" font-family="'MyriadPro-Regular'" font-size="12">n</text>
<text transform="matrix(1 0 0 1 409.2495 447.6563)" font-family="'MyriadPro-Regular'" font-size="12"> </text>
<text transform="matrix(1 0 0 1 411.7935 447.6563)" font-family="'MyriadPro-Regular'" font-size="12">g</text>
<text transform="matrix(1 0 0 1 418.4292 447.6563)" font-family="'MyriadPro-Regular'" font-size="12">i</text>
<text transform="matrix(1 0 0 1 421.2373 447.6563)" font-family="'MyriadPro-Regular'" font-size="12">v</text>
<text transform="matrix(1 0 0 1 426.8887 447.6563)" font-family="'MyriadPro-Regular'" font-size="12">e</text>
<text transform="matrix(1 0 0 1 432.9004 447.6563)" font-family="'MyriadPro-Regular'" font-size="12"> </text>
<text transform="matrix(1 0 0 1 435.4453 447.6563)" font-family="'MyriadPro-Regular'" font-size="12">i</text>
<text transform="matrix(1 0 0 1 438.2529 447.6563)" font-family="'MyriadPro-Regular'" font-size="12">n</text>
<text transform="matrix(1 0 0 1 52.5557 287.0503)" font-family="'MyriadPro-Regular'" font-size="12">S</text>
<text transform="matrix(1 0 0 1 58.4717 287.0503)" font-family="'MyriadPro-Regular'" font-size="12">p</text>
<text transform="matrix(1 0 0 1 65.2993 287.0503)" font-family="'MyriadPro-Regular'" font-size="12">e</text>
<text transform="matrix(1 0 0 1 71.3115 287.0503)" font-family="'MyriadPro-Regular'" font-size="12">n</text>
<text transform="matrix(1 0 0 1 77.9712 287.0503)" font-family="'MyriadPro-Regular'" font-size="12">d</text>
<text transform="matrix(1 0 0 1 84.7393 287.0503)" font-family="'MyriadPro-Regular'" font-size="12"> </text>
<text transform="matrix(1 0 0 1 87.2832 287.0503)" font-family="'MyriadPro-Regular'" font-size="12">p</text>
<text transform="matrix(1 0 0 1 94.1108 287.0503)" font-family="'MyriadPro-Regular'" font-size="12">o</text>
<text transform="matrix(1 0 0 1 100.6987 287.0503)" font-family="'MyriadPro-Regular'" font-size="12">i</text>
<text transform="matrix(1 0 0 1 103.5068 287.0503)" font-family="'MyriadPro-Regular'" font-size="12">n</text>
<text transform="matrix(1 0 0 1 110.1187 287.0503)" font-family="'MyriadPro-Regular'" font-size="12">t</text>
<text transform="matrix(1 0 0 1 114.0908 287.0503)" font-family="'MyriadPro-Regular'" font-size="12">s</text>
<text transform="matrix(1 0 0 1 118.8428 287.0503)" font-family="'MyriadPro-Regular'" font-size="12"> </text>
<text transform="matrix(1 0 0 1 121.3862 287.0503)" font-family="'MyriadPro-Regular'" font-size="12">o</text>
<text transform="matrix(1 0 0 1 127.9746 287.0503)" font-family="'MyriadPro-Regular'" font-size="12">n</text>
<text transform="matrix(1 0 0 1 134.6343 287.0503)" font-family="'MyriadPro-Regular'" font-size="12"> </text>
<text transform="matrix(1 0 0 1 137.1782 287.0503)" font-family="'MyriadPro-Regular'" font-size="12">p</text>
<text transform="matrix(1 0 0 1 144.0059 287.0503)" font-family="'MyriadPro-Regular'" font-size="12">r</text>
<text transform="matrix(1 0 0 1 147.8101 287.0503)" font-family="'MyriadPro-Regular'" font-size="12">o</text>
<text transform="matrix(1 0 0 1 154.3979 287.0503)" font-family="'MyriadPro-Regular'" font-size="12">d</text>
<text transform="matrix(1 0 0 1 161.166 287.0503)" font-family="'MyriadPro-Regular'" font-size="12">u</text>
<text transform="matrix(1 0 0 1 167.7778 287.0503)" font-family="'MyriadPro-Regular'" font-size="12">c</text>
<text transform="matrix(1 0 0 1 173.3096 287.0503)" font-family="'MyriadPro-Regular'" font-size="12">t</text>
<text transform="matrix(1 0 0 1 177.2817 287.0503)" font-family="'MyriadPro-Regular'" font-size="12">s</text>
<text transform="matrix(1 0 0 1 638.4746 282.1211)" font-family="'MyriadPro-Regular'" font-size="12">H</text>
<text transform="matrix(1 0 0 1 646.418 282.1211)" font-family="'MyriadPro-Regular'" font-size="12">i</text>
<text transform="matrix(1 0 0 1 649.2266 282.1211)" font-family="'MyriadPro-Regular'" font-size="12">g</text>
<text transform="matrix(1 0 0 1 655.9346 282.1211)" font-family="'MyriadPro-Regular'" font-size="12">h</text>
<text transform="matrix(1 0 0 1 662.5938 282.1211)" font-family="'MyriadPro-Regular'" font-size="12">e</text>
<text transform="matrix(1 0 0 1 668.6064 282.1211)" font-family="'MyriadPro-Regular'" font-size="12">s</text>
<text transform="matrix(1 0 0 1 673.3584 282.1211)" font-family="'MyriadPro-Regular'" font-size="12">t</text>
<text transform="matrix(1 0 0 1 677.3301 282.1211)" font-family="'MyriadPro-Regular'" font-size="12"> </text>
<text transform="matrix(1 0 0 1 679.874 282.1211)" font-family="'MyriadPro-Regular'" font-size="12">r</text>
<text transform="matrix(1 0 0 1 683.7383 282.1211)" font-family="'MyriadPro-Regular'" font-size="12">a</text>
<text transform="matrix(1 0 0 1 689.5215 282.1211)" font-family="'MyriadPro-Regular'" font-size="12">n</text>
<text transform="matrix(1 0 0 1 696.1816 282.1211)" font-family="'MyriadPro-Regular'" font-size="12">k</text>
<text transform="matrix(1 0 0 1 701.8096 282.1211)" font-family="'MyriadPro-Regular'" font-size="12">e</text>
<text transform="matrix(1 0 0 1 707.8213 282.1211)" font-family="'MyriadPro-Regular'" font-size="12">d</text>
<text transform="matrix(1 0 0 1 714.5898 282.1211)" font-family="'MyriadPro-Regular'" font-size="12"> </text>
<text transform="matrix(1 0 0 1 717.1338 282.1211)" font-family="'MyriadPro-Regular'" font-size="12">p</text>
<text transform="matrix(1 0 0 1 723.9609 282.1211)" font-family="'MyriadPro-Regular'" font-size="12">r</text>
<text transform="matrix(1 0 0 1 727.7656 282.1211)" font-family="'MyriadPro-Regular'" font-size="12">o</text>
<text transform="matrix(1 0 0 1 734.3535 282.1211)" font-family="'MyriadPro-Regular'" font-size="12">d</text>
<text transform="matrix(1 0 0 1 741.1211 282.1211)" font-family="'MyriadPro-Regular'" font-size="12">u</text>
<text transform="matrix(1 0 0 1 747.7334 282.1211)" font-family="'MyriadPro-Regular'" font-size="12">c</text>
<text transform="matrix(1 0 0 1 753.2646 282.1211)" font-family="'MyriadPro-Regular'" font-size="12">t</text>
<text transform="matrix(1 0 0 1 757.2363 282.1211)" font-family="'MyriadPro-Regular'" font-size="12">s</text>
<text transform="matrix(1 0 0 1 761.9883 282.1211)" font-family="'MyriadPro-Regular'" font-size="12"> </text>
<text transform="matrix(1 0 0 1 638.4746 296.5215)" font-family="'MyriadPro-Regular'" font-size="12">i</text>
<text transform="matrix(1 0 0 1 641.2822 296.5215)" font-family="'MyriadPro-Regular'" font-size="12">n</text>
<text transform="matrix(1 0 0 1 647.9424 296.5215)" font-family="'MyriadPro-Regular'" font-size="12">s</text>
<text transform="matrix(1 0 0 1 652.6943 296.5215)" font-family="'MyriadPro-Regular'" font-size="12">i</text>
<text transform="matrix(1 0 0 1 655.502 296.5215)" font-family="'MyriadPro-Regular'" font-size="12">d</text>
<text transform="matrix(1 0 0 1 662.2705 296.5215)" font-family="'MyriadPro-Regular'" font-size="12">e</text>
<text transform="matrix(1 0 0 1 668.2822 296.5215)" font-family="'MyriadPro-Regular'" font-size="12"> </text>
<text transform="matrix(1 0 0 1 670.8262 296.5215)" font-family="'MyriadPro-Regular'" font-size="12">b</text>
<text transform="matrix(1 0 0 1 677.6543 296.5215)" font-family="'MyriadPro-Regular'" font-size="12">u</text>
<text transform="matrix(1 0 0 1 684.2656 296.5215)" font-family="'MyriadPro-Regular'" font-size="12">d</text>
<text transform="matrix(1 0 0 1 691.0342 296.5215)" font-family="'MyriadPro-Regular'" font-size="12">g</text>
<text transform="matrix(1 0 0 1 697.7412 296.5215)" font-family="'MyriadPro-Regular'" font-size="12">e</text>
<text transform="matrix(1 0 0 1 703.7539 296.5215)" font-family="'MyriadPro-Regular'" font-size="12">t</text>
<text transform="matrix(1 0 0 1 707.7256 296.5215)" font-family="'MyriadPro-Regular'" font-size="12"> </text>
<text transform="matrix(1 0 0 1 710.2695 296.5215)" font-family="'MyriadPro-Regular'" font-size="12">a</text>
<text transform="matrix(1 0 0 1 716.0537 296.5215)" font-family="'MyriadPro-Regular'" font-size="12">r</text>
<text transform="matrix(1 0 0 1 719.8574 296.5215)" font-family="'MyriadPro-Regular'" font-size="12">e</text>
<text transform="matrix(1 0 0 1 725.8691 296.5215)" font-family="'MyriadPro-Regular'" font-size="12"> </text>
<text transform="matrix(1 0 0 1 728.4131 296.5215)" font-family="'MyriadPro-Regular'" font-size="12">o</text>
<text transform="matrix(1 0 0 1 735.001 296.5215)" font-family="'MyriadPro-Regular'" font-size="12">r</text>
<text transform="matrix(1 0 0 1 738.8047 296.5215)" font-family="'MyriadPro-Regular'" font-size="12">d</text>
<text transform="matrix(1 0 0 1 745.5732 296.5215)" font-family="'MyriadPro-Regular'" font-size="12">e</text>
<text transform="matrix(1 0 0 1 751.585 296.5215)" font-family="'MyriadPro-Regular'" font-size="12">r</text>
<text transform="matrix(1 0 0 1 755.3887 296.5215)" font-family="'MyriadPro-Regular'" font-size="12">e</text>
<text transform="matrix(1 0 0 1 761.4004 296.5215)" font-family="'MyriadPro-Regular'" font-size="12">d</text>
<text transform="matrix(0.8632 0.5049 -0.5049 0.8632 471.1113 315.5449)" font-family="'MyriadPro-Regular'" font-size="12">V</text>
<text transform="matrix(0.8632 0.5049 -0.5049 0.8632 476.5488 318.7246)" font-family="'MyriadPro-Regular'" font-size="12">a</text>
<text transform="matrix(0.8632 0.5049 -0.5049 0.8632 481.542 321.6445)" font-family="'MyriadPro-Regular'" font-size="12">l</text>
<text transform="matrix(0.8632 0.5049 -0.5049 0.8632 483.9863 323.0742)" font-family="'MyriadPro-Regular'" font-size="12">u</text>
<text transform="matrix(0.8632 0.5049 -0.5049 0.8632 489.6943 326.4141)" font-family="'MyriadPro-Regular'" font-size="12">e</text>
<text transform="matrix(0.8632 0.5049 -0.5049 0.8632 494.8838 329.4492)" font-family="'MyriadPro-Regular'" font-size="12"> </text>
<text transform="matrix(0.8632 0.5049 -0.5049 0.8632 497.0801 330.7324)" font-family="'MyriadPro-Regular'" font-size="12">g</text>
<text transform="matrix(0.8632 0.5049 -0.5049 0.8632 502.8701 334.1191)" font-family="'MyriadPro-Regular'" font-size="12">e</text>
<text transform="matrix(0.8632 0.5049 -0.5049 0.8632 508.0596 337.1543)" font-family="'MyriadPro-Regular'" font-size="12">t</text>
<text transform="matrix(0.8632 0.5049 -0.5049 0.8632 511.4883 339.1602)" font-family="'MyriadPro-Regular'" font-size="12">s</text>
<text transform="matrix(0.8632 0.5049 -0.5049 0.8632 515.5898 341.5586)" font-family="'MyriadPro-Regular'" font-size="12"> </text>
<text transform="matrix(0.8632 0.5049 -0.5049 0.8632 517.7852 342.8438)" font-family="'MyriadPro-Regular'" font-size="12">c</text>
<text transform="matrix(0.8632 0.5049 -0.5049 0.8632 522.4258 345.5566)" font-family="'MyriadPro-Regular'" font-size="12">a</text>
<text transform="matrix(0.8632 0.5049 -0.5049 0.8632 527.4189 348.4766)" font-family="'MyriadPro-Regular'" font-size="12">l</text>
<text transform="matrix(0.8632 0.5049 -0.5049 0.8632 529.8633 349.9063)" font-family="'MyriadPro-Regular'" font-size="12">c</text>
<text transform="matrix(0.8632 0.5049 -0.5049 0.8632 534.5039 352.6211)" font-family="'MyriadPro-Regular'" font-size="12">u</text>
<text transform="matrix(0.8632 0.5049 -0.5049 0.8632 540.2109 355.959)" font-family="'MyriadPro-Regular'" font-size="12">l</text>
<text transform="matrix(0.8632 0.5049 -0.5049 0.8632 542.6563 357.3887)" font-family="'MyriadPro-Regular'" font-size="12">a</text>
<text transform="matrix(0.8632 0.5049 -0.5049 0.8632 547.6074 360.2852)" font-family="'MyriadPro-Regular'" font-size="12">t</text>
<text transform="matrix(0.8632 0.5049 -0.5049 0.8632 550.9727 362.2539)" font-family="'MyriadPro-Regular'" font-size="12">e</text>
<text transform="matrix(0.8632 0.5049 -0.5049 0.8632 556.1621 365.2891)" font-family="'MyriadPro-Regular'" font-size="12">d</text>
<text transform="matrix(0.847 -0.5316 0.5316 0.847 278.7759 368.6055)" font-family="'MyriadPro-Regular'" font-size="12">A</text>
<text transform="matrix(0.847 -0.5316 0.5316 0.847 284.8755 364.7773)" font-family="'MyriadPro-Regular'" font-size="12">d</text>
<text transform="matrix(0.847 -0.5316 0.5316 0.847 290.6069 361.1797)" font-family="'MyriadPro-Regular'" font-size="12">d</text>
<text transform="matrix(0.847 -0.5316 0.5316 0.847 296.3394 357.582)" font-family="'MyriadPro-Regular'" font-size="12"> </text>
<text transform="matrix(0.847 -0.5316 0.5316 0.847 298.4946 356.2295)" font-family="'MyriadPro-Regular'" font-size="12">p</text>
<text transform="matrix(0.847 -0.5316 0.5316 0.847 304.2778 352.5996)" font-family="'MyriadPro-Regular'" font-size="12">r</text>
<text transform="matrix(0.847 -0.5316 0.5316 0.847 307.4995 350.5781)" font-family="'MyriadPro-Regular'" font-size="12">o</text>
<text transform="matrix(0.847 -0.5316 0.5316 0.847 313.0786 347.0752)" font-family="'MyriadPro-Regular'" font-size="12">d</text>
<text transform="matrix(0.847 -0.5316 0.5316 0.847 318.811 343.4775)" font-family="'MyriadPro-Regular'" font-size="12">u</text>
<text transform="matrix(0.847 -0.5316 0.5316 0.847 324.4126 339.9629)" font-family="'MyriadPro-Regular'" font-size="12">c</text>
<text transform="matrix(0.847 -0.5316 0.5316 0.847 329.0972 337.0215)" font-family="'MyriadPro-Regular'" font-size="12">t</text>
<text transform="matrix(0.847 -0.5316 0.5316 0.847 332.4614 334.9102)" font-family="'MyriadPro-Regular'" font-size="12"> </text>
<text transform="matrix(0.847 -0.5316 0.5316 0.847 334.6157 333.5576)" font-family="'MyriadPro-Regular'" font-size="12">t</text>
<text transform="matrix(0.847 -0.5316 0.5316 0.847 337.9194 331.4844)" font-family="'MyriadPro-Regular'" font-size="12">o</text>
<text transform="matrix(0.847 -0.5316 0.5316 0.847 343.4995 327.9824)" font-family="'MyriadPro-Regular'" font-size="12"> </text>
<text transform="matrix(0.847 -0.5316 0.5316 0.847 345.6548 326.6299)" font-family="'MyriadPro-Regular'" font-size="12">w</text>
<text transform="matrix(0.847 -0.5316 0.5316 0.847 353.1353 321.9355)" font-family="'MyriadPro-Regular'" font-size="12">i</text>
<text transform="matrix(0.847 -0.5316 0.5316 0.847 355.5122 320.4424)" font-family="'MyriadPro-Regular'" font-size="12">s</text>
<text transform="matrix(0.847 -0.5316 0.5316 0.847 359.5376 317.916)" font-family="'MyriadPro-Regular'" font-size="12">h</text>
<text transform="matrix(0.847 -0.5316 0.5316 0.847 365.1782 314.375)" font-family="'MyriadPro-Regular'" font-size="12">l</text>
<text transform="matrix(0.847 -0.5316 0.5316 0.847 367.5767 312.8701)" font-family="'MyriadPro-Regular'" font-size="12">i</text>
<text transform="matrix(0.847 -0.5316 0.5316 0.847 369.9556 311.377)" font-family="'MyriadPro-Regular'" font-size="12">s</text>
<text transform="matrix(0.847 -0.5316 0.5316 0.847 373.981 308.8516)" font-family="'MyriadPro-Regular'" font-size="12">t</text>
<text transform="matrix(0.847 -0.5316 0.5316 0.847 274.0859 395.2725)" font-family="'MyriadPro-Regular'" font-size="12">V</text>
<text transform="matrix(0.847 -0.5316 0.5316 0.847 279.4229 391.9229)" font-family="'MyriadPro-Regular'" font-size="12">o</text>
<text transform="matrix(0.847 -0.5316 0.5316 0.847 285.0029 388.4209)" font-family="'MyriadPro-Regular'" font-size="12">t</text>
<text transform="matrix(0.847 -0.5316 0.5316 0.847 288.3066 386.3477)" font-family="'MyriadPro-Regular'" font-size="12">e</text>
<text transform="matrix(0.847 -0.5316 0.5316 0.847 293.3984 383.1523)" font-family="'MyriadPro-Regular'" font-size="12"> </text>
<text transform="matrix(0.847 -0.5316 0.5316 0.847 295.5527 381.7988)" font-family="'MyriadPro-Regular'" font-size="12">o</text>
<text transform="matrix(0.847 -0.5316 0.5316 0.847 301.1328 378.2969)" font-family="'MyriadPro-Regular'" font-size="12">n</text>
<text transform="matrix(0.847 -0.5316 0.5316 0.847 306.7734 374.7559)" font-family="'MyriadPro-Regular'" font-size="12"> </text>
<text transform="matrix(0.847 -0.5316 0.5316 0.847 308.9277 373.4043)" font-family="'MyriadPro-Regular'" font-size="12">c</text>
<text transform="matrix(0.847 -0.5316 0.5316 0.847 313.4814 370.5469)" font-family="'MyriadPro-Regular'" font-size="12">u</text>
<text transform="matrix(0.847 -0.5316 0.5316 0.847 319.082 367.0313)" font-family="'MyriadPro-Regular'" font-size="12">r</text>
<text transform="matrix(0.847 -0.5316 0.5316 0.847 322.4453 364.9199)" font-family="'MyriadPro-Regular'" font-size="12">r</text>
<text transform="matrix(0.847 -0.5316 0.5316 0.847 325.668 362.8975)" font-family="'MyriadPro-Regular'" font-size="12">e</text>
<text transform="matrix(0.847 -0.5316 0.5316 0.847 330.7598 359.7012)" font-family="'MyriadPro-Regular'" font-size="12">n</text>
<text transform="matrix(0.847 -0.5316 0.5316 0.847 336.3604 356.1865)" font-family="'MyriadPro-Regular'" font-size="12">t</text>
<text transform="matrix(0.847 -0.5316 0.5316 0.847 339.7246 354.0752)" font-family="'MyriadPro-Regular'" font-size="12">l</text>
<text transform="matrix(0.847 -0.5316 0.5316 0.847 342.123 352.5703)" font-family="'MyriadPro-Regular'" font-size="12">y</text>
<text transform="matrix(0.847 -0.5316 0.5316 0.847 346.9102 349.5645)" font-family="'MyriadPro-Regular'" font-size="12"> </text>
<text transform="matrix(0.847 -0.5316 0.5316 0.847 349.0645 348.2129)" font-family="'MyriadPro-Regular'" font-size="12">l</text>
<text transform="matrix(0.847 -0.5316 0.5316 0.847 351.4629 346.707)" font-family="'MyriadPro-Regular'" font-size="12">i</text>
<text transform="matrix(0.847 -0.5316 0.5316 0.847 353.8418 345.2148)" font-family="'MyriadPro-Regular'" font-size="12">s</text>
<text transform="matrix(0.847 -0.5316 0.5316 0.847 357.8662 342.6885)" font-family="'MyriadPro-Regular'" font-size="12">t</text>
<text transform="matrix(0.847 -0.5316 0.5316 0.847 361.1699 340.6152)" font-family="'MyriadPro-Regular'" font-size="12">e</text>
<text transform="matrix(0.847 -0.5316 0.5316 0.847 366.2617 337.4189)" font-family="'MyriadPro-Regular'" font-size="12">d</text>
<text transform="matrix(0.847 -0.5316 0.5316 0.847 371.9941 333.8213)" font-family="'MyriadPro-Regular'" font-size="12"> </text>
<text transform="matrix(0.847 -0.5316 0.5316 0.847 374.1484 332.4688)" font-family="'MyriadPro-Regular'" font-size="12">p</text>
<text transform="matrix(0.847 -0.5316 0.5316 0.847 379.9316 328.8398)" font-family="'MyriadPro-Regular'" font-size="12">r</text>
<text transform="matrix(0.847 -0.5316 0.5316 0.847 383.1543 326.8164)" font-family="'MyriadPro-Regular'" font-size="12">o</text>
<text transform="matrix(0.847 -0.5316 0.5316 0.847 388.7344 323.3145)" font-family="'MyriadPro-Regular'" font-size="12">d</text>
<text transform="matrix(0.847 -0.5316 0.5316 0.847 394.4658 319.7168)" font-family="'MyriadPro-Regular'" font-size="12">u</text>
<text transform="matrix(0.847 -0.5316 0.5316 0.847 400.0664 316.2012)" font-family="'MyriadPro-Regular'" font-size="12">c</text>
<text transform="matrix(0.847 -0.5316 0.5316 0.847 404.752 313.2617)" font-family="'MyriadPro-Regular'" font-size="12">t</text>
<text transform="matrix(0.847 -0.5316 0.5316 0.847 408.1162 311.1494)" font-family="'MyriadPro-Regular'" font-size="12">s</text>
<line stroke="#000000" stroke-width="2" stroke-miterlimit="10" x1="141.231" y1="395.272" x2="265.208" y2="395.272"/>
<line stroke="#000000" stroke-width="2" stroke-miterlimit="10" x1="569.514" y1="395.272" x2="693.49" y2="395.272"/>
<line stroke="#000000" stroke-width="2" stroke-miterlimit="10" x1="141.231" y1="130.333" x2="265.208" y2="130.333"/>
<line stroke="#000000" stroke-width="2" stroke-miterlimit="10" x1="569.514" y1="130.333" x2="693.49" y2="130.333"/>
<text transform="matrix(1 0 0 1 174 151)" font-family="'MyriadPro-Regular'" font-size="12">P</text>
<text transform="matrix(1 0 0 1 180.1919 151)" font-family="'MyriadPro-Regular'" font-size="12">r</text>
<text transform="matrix(1 0 0 1 183.9961 151)" font-family="'MyriadPro-Regular'" font-size="12">o</text>
<text transform="matrix(1 0 0 1 190.584 151)" font-family="'MyriadPro-Regular'" font-size="12">d</text>
<text transform="matrix(1 0 0 1 197.3521 151)" font-family="'MyriadPro-Regular'" font-size="12">u</text>
<text transform="matrix(1 0 0 1 203.9639 151)" font-family="'MyriadPro-Regular'" font-size="12">c</text>
<text transform="matrix(1 0 0 1 209.4956 151)" font-family="'MyriadPro-Regular'" font-size="12">t</text>
<text transform="matrix(1 0 0 1 213.4678 151)" font-family="'MyriadPro-Regular'" font-size="12">:</text>
<text transform="matrix(1 0 0 1 174 165.3999)" font-family="'MyriadPro-Regular'" font-size="12">-</text>
<text transform="matrix(1 0 0 1 177.6841 165.3999)" font-family="'MyriadPro-Regular'" font-size="12"> </text>
<text transform="matrix(1 0 0 1 180.2275 165.3999)" font-family="'MyriadPro-Regular'" font-size="12">i</text>
<text transform="matrix(1 0 0 1 183.0356 165.3999)" font-family="'MyriadPro-Regular'" font-size="12">d</text>
<text transform="matrix(1 0 0 1 174 179.7998)" font-family="'MyriadPro-Regular'" font-size="12">-</text>
<text transform="matrix(1 0 0 1 177.6841 179.7998)" font-family="'MyriadPro-Regular'" font-size="12"> </text>
<text transform="matrix(1 0 0 1 180.2275 179.7998)" font-family="'MyriadPro-Regular'" font-size="12">p</text>
<text transform="matrix(1 0 0 1 187.0557 179.7998)" font-family="'MyriadPro-Regular'" font-size="12">r</text>
<text transform="matrix(1 0 0 1 191.0273 179.7998)" font-family="'MyriadPro-Regular'" font-size="12">i</text>
<text transform="matrix(1 0 0 1 193.8354 179.7998)" font-family="'MyriadPro-Regular'" font-size="12">c</text>
<text transform="matrix(1 0 0 1 199.1396 179.7998)" font-family="'MyriadPro-Regular'" font-size="12">e</text>
<text transform="matrix(1 0 0 1 205.1514 179.7998)" font-family="'MyriadPro-Regular'" font-size="12"> </text>
<text transform="matrix(1 0 0 1 207.6953 179.7998)" font-family="'MyriadPro-Regular'" font-size="12">(</text>
<text transform="matrix(1 0 0 1 211.103 179.7998)" font-family="'MyriadPro-Regular'" font-size="12"> </text>
<text transform="matrix(1 0 0 1 213.647 179.7998)" font-family="'MyriadPro-Regular'" font-size="12">p</text>
<text transform="matrix(1 0 0 1 220.4751 179.7998)" font-family="'MyriadPro-Regular'" font-size="12">o</text>
<text transform="matrix(1 0 0 1 227.063 179.7998)" font-family="'MyriadPro-Regular'" font-size="12">i</text>
<text transform="matrix(1 0 0 1 229.8706 179.7998)" font-family="'MyriadPro-Regular'" font-size="12">n</text>
<text transform="matrix(1 0 0 1 236.4829 179.7998)" font-family="'MyriadPro-Regular'" font-size="12">t</text>
<text transform="matrix(1 0 0 1 240.4546 179.7998)" font-family="'MyriadPro-Regular'" font-size="12">s</text>
<text transform="matrix(1 0 0 1 245.2065 179.7998)" font-family="'MyriadPro-Regular'" font-size="12"> </text>
<text transform="matrix(1 0 0 1 247.7505 179.7998)" font-family="'MyriadPro-Regular'" font-size="12">)</text>
<text transform="matrix(1 0 0 1 174 194.2002)" font-family="'MyriadPro-Regular'" font-size="12">-</text>
<text transform="matrix(1 0 0 1 177.6841 194.2002)" font-family="'MyriadPro-Regular'" font-size="12"> </text>
<text transform="matrix(1 0 0 1 180.2275 194.2002)" font-family="'MyriadPro-Regular'" font-size="12">s</text>
<text transform="matrix(1 0 0 1 184.9795 194.2002)" font-family="'MyriadPro-Regular'" font-size="12">p</text>
<text transform="matrix(1 0 0 1 191.8076 194.2002)" font-family="'MyriadPro-Regular'" font-size="12">e</text>
<text transform="matrix(1 0 0 1 197.8193 194.2002)" font-family="'MyriadPro-Regular'" font-size="12">c</text>
<text transform="matrix(1 0 0 1 203.1953 194.2002)" font-family="'MyriadPro-Regular'" font-size="12">s</text>
<text transform="matrix(1 0 0 1 174 208.6001)" font-family="'MyriadPro-Regular'" font-size="12">-</text>
<text transform="matrix(1 0 0 1 177.6841 208.6001)" font-family="'MyriadPro-Regular'" font-size="12"> </text>
<text transform="matrix(1 0 0 1 180.2275 208.6001)" font-family="'MyriadPro-Regular'" font-size="12">c</text>
<text transform="matrix(1 0 0 1 185.6035 208.6001)" font-family="'MyriadPro-Regular'" font-size="12">a</text>
<text transform="matrix(1 0 0 1 191.3398 208.6001)" font-family="'MyriadPro-Regular'" font-size="12">t</text>
<text transform="matrix(1 0 0 1 195.2397 208.6001)" font-family="'MyriadPro-Regular'" font-size="12">e</text>
<text transform="matrix(1 0 0 1 201.2515 208.6001)" font-family="'MyriadPro-Regular'" font-size="12">g</text>
<text transform="matrix(1 0 0 1 207.9595 208.6001)" font-family="'MyriadPro-Regular'" font-size="12">o</text>
<text transform="matrix(1 0 0 1 214.5474 208.6001)" font-family="'MyriadPro-Regular'" font-size="12">r</text>
<text transform="matrix(1 0 0 1 218.7715 208.6001)" font-family="'MyriadPro-Regular'" font-size="12">y</text>
<text transform="matrix(1 0 0 1 174 422)" font-family="'MyriadPro-Regular'" font-size="12">-</text>
<text transform="matrix(1 0 0 1 177.6841 422)" font-family="'MyriadPro-Regular'" font-size="12"> </text>
<text transform="matrix(1 0 0 1 180.2275 422)" font-family="'MyriadPro-Regular'" font-size="12">i</text>
<text transform="matrix(1 0 0 1 183.0356 422)" font-family="'MyriadPro-Regular'" font-size="12">d</text>
<text transform="matrix(1 0 0 1 174 436.4004)" font-family="'MyriadPro-Regular'" font-size="12">-</text>
<text transform="matrix(1 0 0 1 177.6841 436.4004)" font-family="'MyriadPro-Regular'" font-size="12"> </text>
<text transform="matrix(1 0 0 1 180.2275 436.4004)" font-family="'MyriadPro-Regular'" font-size="12">b</text>
<text transform="matrix(1 0 0 1 187.0557 436.4004)" font-family="'MyriadPro-Regular'" font-size="12">a</text>
<text transform="matrix(1 0 0 1 192.8394 436.4004)" font-family="'MyriadPro-Regular'" font-size="12">l</text>
<text transform="matrix(1 0 0 1 195.6714 436.4004)" font-family="'MyriadPro-Regular'" font-size="12">a</text>
<text transform="matrix(1 0 0 1 201.4556 436.4004)" font-family="'MyriadPro-Regular'" font-size="12">n</text>
<text transform="matrix(1 0 0 1 208.1152 436.4004)" font-family="'MyriadPro-Regular'" font-size="12">c</text>
<text transform="matrix(1 0 0 1 213.4194 436.4004)" font-family="'MyriadPro-Regular'" font-size="12">e</text>
<text transform="matrix(1 0 0 1 606.5029 151)" font-family="'MyriadPro-Regular'" font-size="12">-</text>
<text transform="matrix(1 0 0 1 610.1865 151)" font-family="'MyriadPro-Regular'" font-size="12"> </text>
<text transform="matrix(1 0 0 1 612.7305 151)" font-family="'MyriadPro-Regular'" font-size="12">p</text>
<text transform="matrix(1 0 0 1 619.5586 151)" font-family="'MyriadPro-Regular'" font-size="12">r</text>
<text transform="matrix(1 0 0 1 623.3623 151)" font-family="'MyriadPro-Regular'" font-size="12">o</text>
<text transform="matrix(1 0 0 1 629.9502 151)" font-family="'MyriadPro-Regular'" font-size="12">d</text>
<text transform="matrix(1 0 0 1 636.7188 151)" font-family="'MyriadPro-Regular'" font-size="12">u</text>
<text transform="matrix(1 0 0 1 643.3301 151)" font-family="'MyriadPro-Regular'" font-size="12">c</text>
<text transform="matrix(1 0 0 1 648.8623 151)" font-family="'MyriadPro-Regular'" font-size="12">t</text>
<text transform="matrix(1 0 0 1 606.5029 165.3999)" font-family="'MyriadPro-Regular'" font-size="12">-</text>
<text transform="matrix(1 0 0 1 610.1865 165.3999)" font-family="'MyriadPro-Regular'" font-size="12"> </text>
<text transform="matrix(1 0 0 1 612.7305 165.3999)" font-family="'MyriadPro-Regular'" font-size="12">p</text>
<text transform="matrix(1 0 0 1 619.5586 165.3999)" font-family="'MyriadPro-Regular'" font-size="12">r</text>
<text transform="matrix(1 0 0 1 623.5303 165.3999)" font-family="'MyriadPro-Regular'" font-size="12">i</text>
<text transform="matrix(1 0 0 1 626.3379 165.3999)" font-family="'MyriadPro-Regular'" font-size="12">c</text>
<text transform="matrix(1 0 0 1 631.6426 165.3999)" font-family="'MyriadPro-Regular'" font-size="12">e</text>
<text transform="matrix(1 0 0 1 606.5029 179.7998)" font-family="'MyriadPro-Regular'" font-size="12">-</text>
<text transform="matrix(1 0 0 1 610.1865 179.7998)" font-family="'MyriadPro-Regular'" font-size="12"> </text>
<text transform="matrix(1 0 0 1 612.7305 179.7998)" font-family="'MyriadPro-Regular'" font-size="12">a</text>
<text transform="matrix(1 0 0 1 618.5146 179.7998)" font-family="'MyriadPro-Regular'" font-size="12">m</text>
<text transform="matrix(1 0 0 1 628.5225 179.7998)" font-family="'MyriadPro-Regular'" font-size="12">o</text>
<text transform="matrix(1 0 0 1 635.1104 179.7998)" font-family="'MyriadPro-Regular'" font-size="12">u</text>
<text transform="matrix(1 0 0 1 641.7227 179.7998)" font-family="'MyriadPro-Regular'" font-size="12">n</text>
<text transform="matrix(1 0 0 1 648.334 179.7998)" font-family="'MyriadPro-Regular'" font-size="12">t</text>
<text transform="matrix(1 0 0 1 606.5029 194.2002)" font-family="'MyriadPro-Regular'" font-size="12">-</text>
<text transform="matrix(1 0 0 1 610.1865 194.2002)" font-family="'MyriadPro-Regular'" font-size="12"> </text>
<text transform="matrix(1 0 0 1 612.7305 194.2002)" font-family="'MyriadPro-Regular'" font-size="12">v</text>
<text transform="matrix(1 0 0 1 618.3828 194.2002)" font-family="'MyriadPro-Regular'" font-size="12">o</text>
<text transform="matrix(1 0 0 1 624.9707 194.2002)" font-family="'MyriadPro-Regular'" font-size="12">t</text>
<text transform="matrix(1 0 0 1 628.8701 194.2002)" font-family="'MyriadPro-Regular'" font-size="12">e</text>
<text transform="matrix(1 0 0 1 634.8828 194.2002)" font-family="'MyriadPro-Regular'" font-size="12">s</text>
<text transform="matrix(1 0 0 1 606.5029 208.6001)" font-family="'MyriadPro-Regular'" font-size="12">-</text>
<text transform="matrix(1 0 0 1 610.1865 208.6001)" font-family="'MyriadPro-Regular'" font-size="12"> </text>
<text transform="matrix(1 0 0 1 612.7305 208.6001)" font-family="'MyriadPro-Regular'" font-size="12">l</text>
<text transform="matrix(1 0 0 1 615.5625 208.6001)" font-family="'MyriadPro-Regular'" font-size="12">i</text>
<text transform="matrix(1 0 0 1 618.3701 208.6001)" font-family="'MyriadPro-Regular'" font-size="12">n</text>
<text transform="matrix(1 0 0 1 625.0303 208.6001)" font-family="'MyriadPro-Regular'" font-size="12">k</text>
</svg>
